<?xml version="1.0" standalone="no"?>
<!DOCTYPE svg PUBLIC "-//W3C//DTD SVG 20010904//EN"
 "http://www.w3.org/TR/2001/REC-SVG-20010904/DTD/svg10.dtd">
<svg version="1.0" xmlns="http://www.w3.org/2000/svg"
 width="160.000000pt" height="160.000000pt" viewBox="0 0 160.000000 160.000000"
 preserveAspectRatio="xMidYMid meet">
<metadata>
Created by potrace 1.14, written by Peter Selinger 2001-2017
</metadata>
<g transform="translate(0.000000,160.000000) scale(0.100000,-0.100000)"
fill="#000000" stroke="none">
<path d="M92 1570 c-76 -35 -90 -111 -49 -275 33 -129 144 -415 211 -541 l35
-67 -24 -29 c-30 -35 -32 -69 -6 -92 19 -18 19 -18 0 -52 -32 -58 -26 -85 36
-145 30 -30 55 -57 55 -60 0 -4 -17 -10 -37 -14 -46 -8 -102 -37 -127 -63 -11
-13 -19 -39 -21 -66 -2 -37 3 -51 24 -74 22 -24 78 -56 95 -53 3 0 23 -6 43
-13 21 -7 77 -13 125 -14 73 0 111 5 213 31 27 7 74 42 87 66 15 26 17 89 3
111 -4 6 -24 24 -46 39 -21 16 -36 31 -32 34 3 3 20 -4 37 -17 51 -38 298
-150 356 -162 8 -2 23 -7 35 -13 30 -15 173 -62 234 -76 155 -37 244 19 236
149 -4 70 -10 101 -31 171 -33 105 -141 295 -235 416 -24 30 -27 43 -24 85 2
27 6 94 10 149 6 106 17 139 52 168 13 10 44 46 70 80 26 34 50 64 53 67 21
17 51 74 55 101 10 78 -77 135 -148 98 -25 -13 -170 -126 -205 -159 -13 -12
-21 -27 -19 -33 6 -19 -38 -35 -161 -58 -64 -11 -119 -22 -123 -24 -3 -2 -18
7 -35 20 -16 14 -34 28 -39 33 -145 120 -348 237 -470 271 -128 36 -174 38
-233 11z m1062 -334 c22 9 20 -3 -3 -16 -14 -7 -27 -7 -45 2 -34 15 -65 -10
-59 -46 4 -20 -1 -28 -27 -41 l-31 -16 -45 41 c-47 43 -46 45 21 55 68 11 89
15 120 24 17 4 35 4 41 -1 6 -4 19 -6 28 -2z m106 -67 c0 -17 -36 -68 -42 -59
-1 3 -14 17 -27 33 l-24 27 23 25 c22 23 23 23 46 7 13 -9 24 -24 24 -33z
m-85 -77 c-2 -2 -18 9 -34 26 -17 16 -27 32 -24 36 3 3 19 -8 35 -26 15 -17
26 -33 23 -36z m-13 -38 c33 -17 68 -4 68 25 0 19 29 51 31 35 4 -33 -11 -256
-17 -263 -2 -2 -16 12 -31 30 -39 47 -144 159 -171 183 l-23 21 28 22 27 22
30 -30 c16 -17 42 -37 58 -45z"/>
</g>
</svg>
